<?xml version="1.0" encoding="UTF-8" standalone="no"?>
<!DOCTYPE svg PUBLIC "-//W3C//DTD SVG 1.1//EN" "http://www.w3.org/Graphics/SVG/1.1/DTD/svg11.dtd">
<svg width="100%" height="100%" viewBox="0 0 386 278" version="1.1" xmlns="http://www.w3.org/2000/svg" xmlns:xlink="http://www.w3.org/1999/xlink" xml:space="preserve" xmlns:serif="http://www.serif.com/" style="fill-rule:evenodd;clip-rule:evenodd;stroke-linecap:round;stroke-linejoin:round;stroke-miterlimit:1.5;">
    <g transform="matrix(1,0,0,1,-386.157,-1071.32)">
        <g transform="matrix(1,0,0,1,-1178.16,463.927)">
            <g transform="matrix(1,0,0,1,1190,0)">
                <g transform="matrix(274.273,0,0,274.273,360.602,837.834)">
                    <rect x="0.05" y="-0.72" width="0.154" height="0.72" style="fill-rule:nonzero;"/>
                </g>
                <g transform="matrix(274.273,0,0,274.273,403.937,837.834)">
                    <path d="M0.024,-0L0.282,-0.72L0.414,-0.72L0.177,-0L0.024,-0ZM0.552,-0L0.316,-0.72L0.454,-0.72L0.712,-0L0.552,-0ZM0.16,-0.279L0.564,-0.279L0.564,-0.159L0.16,-0.159L0.16,-0.279Z" style="fill-rule:nonzero;"/>
                </g>
                <g transform="matrix(274.273,0,0,274.273,572.615,837.834)">
                    <rect x="0" y="0.06" width="0.486" height="0.11" style="fill-rule:nonzero;"/>
                </g>
                <g transform="matrix(274.273,0,0,274.273,705.912,837.834)">
                </g>
            </g>
            <g transform="matrix(1,0,0,1,-50.9898,15.7626)">
                <g transform="matrix(0.203345,0,0,0.203345,1742.87,345.192)">
                    <circle cx="945.785" cy="1536.3" r="293.614" style="fill:none;stroke:black;stroke-width:61.47px;"/>
                </g>
                <g transform="matrix(1,0,0,1,1217.17,-665.026)">
                    <g transform="matrix(62.5,0,0,62.5,669.068,1343.26)">
                        <path d="M0.532,-0.01L0.068,-0.203L0.068,-0.383L0.532,-0.576L0.532,-0.426L0.131,-0.26L0.131,-0.327L0.532,-0.161L0.532,-0.01Z" style="fill-rule:nonzero;"/>
                    </g>
                    <g transform="matrix(62.5,0,0,62.5,700.567,1343.26)">
                        <path d="M0.072,0.11L0.368,-0.75L0.528,-0.75L0.232,0.11L0.072,0.11Z" style="fill-rule:nonzero;"/>
                    </g>
                    <g transform="matrix(62.5,0,0,62.5,732.067,1343.26)">
                        <path d="M0.068,-0.01L0.068,-0.161L0.469,-0.327L0.469,-0.26L0.068,-0.426L0.068,-0.576L0.532,-0.383L0.532,-0.203L0.068,-0.01Z" style="fill-rule:nonzero;"/>
                    </g>
                    <g transform="matrix(62.5,0,0,62.5,769.566,1343.26)">
                    </g>
                </g>
            </g>
        </g>
    </g>
</svg>
