<?xml version="1.0" encoding="UTF-8" standalone="no"?><!DOCTYPE svg PUBLIC "-//W3C//DTD SVG 1.1//EN" "http://www.w3.org/Graphics/SVG/1.1/DTD/svg11.dtd"><svg width="100%" height="100%" viewBox="0 0 1754 252" version="1.1" xmlns="http://www.w3.org/2000/svg" xmlns:xlink="http://www.w3.org/1999/xlink" xml:space="preserve" xmlns:serif="http://www.serif.com/" style="fill-rule:evenodd;clip-rule:evenodd;stroke-linejoin:round;stroke-miterlimit:2;"><g><g><g transform="matrix(337.642,0,0,337.642,654.829,246.548)"><path d="M-0.035,-0l0.422,-0.72l0.143,0l-0.401,0.72l-0.164,-0Zm0.535,-0l-0.072,-0.72l0.131,0l0.094,0.72l-0.153,-0Zm-0.335,-0.279l0.404,0l-0.028,0.12l-0.404,0l0.028,-0.12Z" style="fill-rule:nonzero;"/></g><g transform="matrix(337.642,0,0,337.642,862.479,246.548)"><path d="M0.362,-0l0.023,-0.096l0.005,0.003c-0.014,0.033 -0.036,0.058 -0.067,0.076c-0.031,0.018 -0.067,0.027 -0.109,0.027c-0.059,0 -0.106,-0.018 -0.141,-0.054c-0.035,-0.036 -0.052,-0.087 -0.052,-0.154c-0,-0.044 0.007,-0.085 0.021,-0.124c0.014,-0.039 0.034,-0.073 0.059,-0.102c0.025,-0.03 0.055,-0.053 0.088,-0.07c0.033,-0.017 0.069,-0.026 0.108,-0.026c0.034,0 0.063,0.006 0.088,0.019c0.025,0.013 0.043,0.03 0.056,0.052c0.014,0.022 0.018,0.047 0.015,0.075l-0.01,0l0.079,-0.346l0.15,0l-0.166,0.72l-0.147,-0Zm-0.086,-0.105c0.017,0 0.034,-0.003 0.049,-0.01c0.015,-0.007 0.028,-0.016 0.04,-0.027c0.011,-0.011 0.021,-0.025 0.03,-0.04c0.009,-0.015 0.015,-0.031 0.02,-0.048c0.004,-0.017 0.006,-0.034 0.006,-0.051c0,-0.036 -0.009,-0.064 -0.027,-0.084c-0.019,-0.02 -0.043,-0.03 -0.072,-0.03c-0.029,0 -0.054,0.009 -0.075,0.026c-0.022,0.016 -0.039,0.038 -0.051,0.065c-0.013,0.027 -0.019,0.055 -0.019,0.085c0,0.036 0.009,0.064 0.028,0.084c0.018,0.02 0.042,0.03 0.071,0.03Z" style="fill-rule:nonzero;"/></g><g transform="matrix(337.642,0,0,337.642,1042.1,246.548)"><path d="M0.272,0.01c-0.05,0 -0.094,-0.01 -0.132,-0.03c-0.037,-0.02 -0.066,-0.048 -0.087,-0.084c-0.021,-0.035 -0.031,-0.077 -0.031,-0.124c-0,-0.041 0.008,-0.08 0.023,-0.116c0.016,-0.035 0.038,-0.066 0.066,-0.092c0.028,-0.027 0.061,-0.047 0.098,-0.062c0.037,-0.015 0.078,-0.022 0.122,-0.022c0.051,0 0.095,0.01 0.133,0.03c0.037,0.019 0.066,0.046 0.087,0.081c0.021,0.035 0.032,0.077 0.032,0.124c-0,0.041 -0.008,0.08 -0.024,0.116c-0.016,0.036 -0.038,0.067 -0.067,0.094c-0.028,0.027 -0.061,0.047 -0.099,0.062c-0.037,0.015 -0.078,0.023 -0.121,0.023Zm0.011,-0.118c0.02,-0 0.039,-0.005 0.056,-0.014c0.017,-0.009 0.032,-0.021 0.045,-0.037c0.014,-0.016 0.024,-0.035 0.032,-0.056c0.007,-0.021 0.011,-0.043 0.011,-0.068c-0,-0.037 -0.009,-0.067 -0.028,-0.088c-0.019,-0.021 -0.044,-0.031 -0.076,-0.031c-0.021,0 -0.04,0.004 -0.057,0.013c-0.018,0.009 -0.034,0.021 -0.047,0.036c-0.013,0.015 -0.023,0.033 -0.03,0.054c-0.007,0.021 -0.011,0.043 -0.011,0.068c0,0.037 0.009,0.067 0.028,0.089c0.019,0.023 0.044,0.034 0.077,0.034Z" style="fill-rule:nonzero;"/></g><g transform="matrix(337.642,0,0,337.642,1213.63,246.548)"><path d="M0.33,0.014c-0.033,0 -0.063,-0.006 -0.088,-0.019c-0.024,-0.013 -0.043,-0.03 -0.056,-0.052c-0.013,-0.022 -0.018,-0.047 -0.015,-0.075l0.007,0l-0.03,0.132l-0.147,-0l0.166,-0.72l0.15,0l-0.071,0.31l-0.009,-0.003c0.013,-0.033 0.035,-0.058 0.066,-0.076c0.031,-0.018 0.068,-0.027 0.11,-0.027c0.059,0 0.106,0.018 0.141,0.054c0.035,0.036 0.052,0.087 0.052,0.154c-0,0.044 -0.007,0.085 -0.021,0.124c-0.014,0.039 -0.034,0.073 -0.059,0.103c-0.025,0.029 -0.055,0.053 -0.088,0.07c-0.033,0.017 -0.069,0.025 -0.108,0.025Zm-0.025,-0.125c0.021,0 0.041,-0.005 0.058,-0.015c0.018,-0.01 0.033,-0.023 0.046,-0.04c0.014,-0.017 0.023,-0.035 0.03,-0.056c0.008,-0.021 0.011,-0.043 0.011,-0.065c-0,-0.036 -0.009,-0.064 -0.028,-0.084c-0.018,-0.02 -0.042,-0.03 -0.071,-0.03c-0.017,0 -0.034,0.003 -0.049,0.01c-0.015,0.007 -0.028,0.016 -0.04,0.027c-0.011,0.011 -0.021,0.025 -0.03,0.039c-0.009,0.016 -0.015,0.031 -0.02,0.048c-0.004,0.018 -0.006,0.035 -0.006,0.052c-0,0.036 0.009,0.064 0.027,0.084c0.019,0.02 0.043,0.03 0.072,0.03Z" style="fill-rule:nonzero;"/></g><g transform="matrix(337.642,0,0,337.642,1393.25,246.548)"><path d="M0.272,0.01c-0.05,0 -0.094,-0.01 -0.132,-0.03c-0.037,-0.02 -0.066,-0.048 -0.087,-0.084c-0.021,-0.035 -0.031,-0.077 -0.031,-0.124c-0,-0.041 0.008,-0.08 0.023,-0.116c0.016,-0.035 0.038,-0.066 0.066,-0.092c0.028,-0.027 0.061,-0.047 0.098,-0.062c0.037,-0.015 0.078,-0.022 0.122,-0.022c0.051,0 0.095,0.01 0.133,0.03c0.037,0.019 0.066,0.046 0.087,0.081c0.021,0.035 0.032,0.077 0.032,0.124c-0,0.041 -0.008,0.08 -0.024,0.116c-0.016,0.036 -0.038,0.067 -0.067,0.094c-0.028,0.027 -0.061,0.047 -0.099,0.062c-0.037,0.015 -0.078,0.023 -0.121,0.023Zm0.011,-0.118c0.02,-0 0.039,-0.005 0.056,-0.014c0.017,-0.009 0.032,-0.021 0.045,-0.037c0.014,-0.016 0.024,-0.035 0.032,-0.056c0.007,-0.021 0.011,-0.043 0.011,-0.068c-0,-0.037 -0.009,-0.067 -0.028,-0.088c-0.019,-0.021 -0.044,-0.031 -0.076,-0.031c-0.021,0 -0.04,0.004 -0.057,0.013c-0.018,0.009 -0.034,0.021 -0.047,0.036c-0.013,0.015 -0.023,0.033 -0.03,0.054c-0.007,0.021 -0.011,0.043 -0.011,0.068c0,0.037 0.009,0.067 0.028,0.089c0.019,0.023 0.044,0.034 0.077,0.034Z" style="fill-rule:nonzero;"/></g><g transform="matrix(337.642,0,0,337.642,1564.77,246.548)"><path d="M0.258,0.01c-0.044,0 -0.084,-0.009 -0.121,-0.026c-0.036,-0.017 -0.065,-0.042 -0.086,-0.076c-0.021,-0.033 -0.032,-0.075 -0.032,-0.124c-0,-0.031 0.005,-0.062 0.013,-0.092c0.01,-0.029 0.023,-0.057 0.04,-0.083c0.017,-0.025 0.038,-0.048 0.064,-0.067c0.024,-0.019 0.053,-0.034 0.084,-0.046c0.031,-0.011 0.066,-0.016 0.103,-0.016c0.043,0 0.083,0.008 0.119,0.024c0.036,0.016 0.065,0.04 0.086,0.072c0.021,0.031 0.032,0.071 0.032,0.119c0,0.021 -0.002,0.039 -0.007,0.056c-0.004,0.017 -0.01,0.03 -0.017,0.039l-0.433,0l0.021,-0.099l0.315,0l-0.029,0.03c0.004,-0.015 0.006,-0.031 0.005,-0.046c-0.001,-0.016 -0.005,-0.03 -0.012,-0.043c-0.007,-0.014 -0.017,-0.024 -0.031,-0.032c-0.014,-0.008 -0.032,-0.012 -0.055,-0.012c-0.023,-0 -0.043,0.004 -0.061,0.013c-0.016,0.008 -0.031,0.019 -0.043,0.033c-0.011,0.014 -0.021,0.03 -0.028,0.047c-0.007,0.017 -0.012,0.035 -0.015,0.053c-0.003,0.018 -0.005,0.035 -0.005,0.051c0,0.043 0.01,0.073 0.029,0.091c0.019,0.017 0.045,0.026 0.078,0.026c0.027,0 0.05,-0.005 0.067,-0.014c0.017,-0.01 0.031,-0.022 0.04,-0.037l0.139,0c-0.023,0.05 -0.057,0.089 -0.103,0.117c-0.047,0.028 -0.099,0.042 -0.157,0.042Z" style="fill-rule:nonzero;"/></g><g transform="matrix(337.642,0,0,337.642,1758.92,246.548)"></g></g><g transform="matrix(337.642,0,0,337.642,-16.8821,243.102)"><rect x="0.05" y="-0.72" width="0.154" height="0.72" style="fill-rule:nonzero;"/></g><g transform="matrix(337.642,0,0,337.642,36.4653,243.102)"><path d="M0.266,0.01c-0.075,0 -0.134,-0.015 -0.178,-0.045c-0.044,-0.03 -0.068,-0.071 -0.072,-0.124l0.134,0c0.003,0.023 0.015,0.04 0.034,0.052c0.02,0.011 0.047,0.017 0.082,0.017c0.031,-0 0.054,-0.004 0.069,-0.014c0.014,-0.009 0.021,-0.021 0.021,-0.038c0,-0.013 -0.004,-0.023 -0.013,-0.03c-0.008,-0.007 -0.023,-0.012 -0.045,-0.017l-0.082,-0.017c-0.061,-0.013 -0.105,-0.032 -0.134,-0.057c-0.029,-0.026 -0.043,-0.059 -0.043,-0.1c-0,-0.049 0.019,-0.088 0.057,-0.116c0.038,-0.027 0.091,-0.041 0.159,-0.041c0.067,0 0.121,0.013 0.161,0.04c0.04,0.028 0.062,0.065 0.066,0.113l-0.134,0c-0.003,-0.017 -0.012,-0.03 -0.028,-0.039c-0.016,-0.009 -0.039,-0.014 -0.068,-0.014c-0.027,0 -0.046,0.004 -0.059,0.012c-0.014,0.007 -0.02,0.018 -0.02,0.032c0,0.012 0.005,0.022 0.016,0.028c0.011,0.007 0.028,0.014 0.053,0.019l0.092,0.019c0.051,0.011 0.09,0.03 0.117,0.059c0.026,0.029 0.039,0.064 0.039,0.103c0,0.05 -0.019,0.089 -0.058,0.116c-0.039,0.028 -0.095,0.042 -0.166,0.042Z" style="fill-rule:nonzero;"/></g><g transform="matrix(337.642,0,0,337.642,179.963,243.102)"><path d="M0.381,-0c-0.004,-0.015 -0.007,-0.03 -0.009,-0.047c-0.001,-0.017 -0.002,-0.036 -0.002,-0.058l-0.004,0l0,-0.241c-0,-0.021 -0.007,-0.037 -0.02,-0.049c-0.014,-0.011 -0.034,-0.017 -0.061,-0.017c-0.025,-0 -0.045,0.004 -0.06,0.013c-0.015,0.009 -0.025,0.021 -0.03,0.038l-0.143,0c0.007,-0.046 0.03,-0.084 0.071,-0.114c0.041,-0.03 0.096,-0.045 0.167,-0.045c0.073,0 0.129,0.016 0.168,0.049c0.039,0.033 0.058,0.08 0.058,0.141l0,0.225c0,0.017 0.001,0.034 0.003,0.051c0.003,0.017 0.007,0.035 0.012,0.054l-0.15,0Zm-0.178,0.01c-0.051,0 -0.091,-0.013 -0.121,-0.038c-0.03,-0.026 -0.045,-0.06 -0.045,-0.103c-0,-0.047 0.018,-0.085 0.053,-0.114c0.036,-0.029 0.086,-0.048 0.15,-0.057l0.149,-0.021l0,0.087l-0.124,0.019c-0.027,0.004 -0.046,0.011 -0.059,0.022c-0.013,0.011 -0.019,0.025 -0.019,0.044c-0,0.017 0.006,0.029 0.018,0.038c0.012,0.009 0.028,0.013 0.048,0.013c0.031,0 0.058,-0.008 0.08,-0.025c0.022,-0.017 0.033,-0.037 0.033,-0.06l0.014,0.08c-0.015,0.038 -0.037,0.067 -0.067,0.086c-0.03,0.019 -0.067,0.029 -0.11,0.029Z" style="fill-rule:nonzero;"/></g><g transform="matrix(337.642,0,0,337.642,338.993,243.102)"><path d="M0.381,-0c-0.004,-0.015 -0.007,-0.03 -0.009,-0.047c-0.001,-0.017 -0.002,-0.036 -0.002,-0.058l-0.004,0l0,-0.241c-0,-0.021 -0.007,-0.037 -0.02,-0.049c-0.014,-0.011 -0.034,-0.017 -0.061,-0.017c-0.025,-0 -0.045,0.004 -0.06,0.013c-0.015,0.009 -0.025,0.021 -0.03,0.038l-0.143,0c0.007,-0.046 0.03,-0.084 0.071,-0.114c0.041,-0.03 0.096,-0.045 0.167,-0.045c0.073,0 0.129,0.016 0.168,0.049c0.039,0.033 0.058,0.08 0.058,0.141l0,0.225c0,0.017 0.001,0.034 0.003,0.051c0.003,0.017 0.007,0.035 0.012,0.054l-0.15,0Zm-0.178,0.01c-0.051,0 -0.091,-0.013 -0.121,-0.038c-0.03,-0.026 -0.045,-0.06 -0.045,-0.103c-0,-0.047 0.018,-0.085 0.053,-0.114c0.036,-0.029 0.086,-0.048 0.15,-0.057l0.149,-0.021l0,0.087l-0.124,0.019c-0.027,0.004 -0.046,0.011 -0.059,0.022c-0.013,0.011 -0.019,0.025 -0.019,0.044c-0,0.017 0.006,0.029 0.018,0.038c0.012,0.009 0.028,0.013 0.048,0.013c0.031,0 0.058,-0.008 0.08,-0.025c0.022,-0.017 0.033,-0.037 0.033,-0.06l0.014,0.08c-0.015,0.038 -0.037,0.067 -0.067,0.086c-0.03,0.019 -0.067,0.029 -0.11,0.029Z" style="fill-rule:nonzero;"/></g><g transform="matrix(337.642,0,0,337.642,499.372,243.102)"><path d="M0.291,0.01c-0.053,0 -0.1,-0.011 -0.141,-0.034c-0.041,-0.023 -0.072,-0.054 -0.095,-0.094c-0.023,-0.04 -0.035,-0.086 -0.035,-0.137c0,-0.051 0.012,-0.097 0.035,-0.137c0.023,-0.04 0.054,-0.071 0.095,-0.094c0.041,-0.023 0.088,-0.034 0.141,-0.034c0.045,0 0.085,0.008 0.121,0.025c0.035,0.016 0.065,0.038 0.088,0.067c0.023,0.029 0.037,0.062 0.044,0.101l-0.145,-0c-0.007,-0.025 -0.021,-0.043 -0.04,-0.056c-0.019,-0.013 -0.041,-0.019 -0.066,-0.019c-0.024,0 -0.045,0.006 -0.063,0.018c-0.017,0.012 -0.031,0.029 -0.04,0.051c-0.009,0.022 -0.014,0.048 -0.014,0.078c0,0.03 0.005,0.056 0.014,0.078c0.009,0.022 0.023,0.039 0.04,0.051c0.018,0.012 0.039,0.018 0.063,0.018c0.025,-0 0.047,-0.006 0.066,-0.019c0.019,-0.013 0.033,-0.031 0.04,-0.056l0.145,-0c-0.007,0.039 -0.021,0.072 -0.045,0.101c-0.023,0.029 -0.052,0.051 -0.088,0.067c-0.035,0.017 -0.075,0.025 -0.12,0.025Z" style="fill-rule:nonzero;"/></g></g></svg>