<?xml version="1.0" encoding="UTF-8" standalone="no"?>
<!DOCTYPE svg PUBLIC "-//W3C//DTD SVG 1.1//EN" "http://www.w3.org/Graphics/SVG/1.1/DTD/svg11.dtd">
<svg width="100%" height="100%" viewBox="0 0 1536 265" version="1.1" xmlns="http://www.w3.org/2000/svg" xmlns:xlink="http://www.w3.org/1999/xlink" xml:space="preserve" xmlns:serif="http://www.serif.com/" style="fill-rule:evenodd;clip-rule:evenodd;stroke-linejoin:round;stroke-miterlimit:2;">
    <g transform="matrix(1,0,0,1,-343.265,-968.178)">
        <g transform="matrix(0.978236,0,0,0.978236,-22.9046,367.884)">
            <g transform="matrix(274.273,0,0,274.273,360.602,837.834)">
                <rect x="0.05" y="-0.72" width="0.154" height="0.72" style="fill-rule:nonzero;"/>
            </g>
            <g transform="matrix(274.273,0,0,274.273,403.937,837.834)">
                <path d="M0.266,0.01C0.191,0.01 0.132,-0.005 0.088,-0.035C0.044,-0.065 0.02,-0.106 0.016,-0.159L0.15,-0.159C0.153,-0.136 0.165,-0.119 0.185,-0.108C0.204,-0.096 0.231,-0.09 0.266,-0.09C0.297,-0.09 0.32,-0.094 0.335,-0.104C0.349,-0.113 0.356,-0.125 0.356,-0.142C0.356,-0.155 0.352,-0.165 0.344,-0.172C0.335,-0.179 0.32,-0.184 0.298,-0.189L0.216,-0.206C0.155,-0.219 0.111,-0.238 0.082,-0.264C0.053,-0.289 0.039,-0.322 0.039,-0.363C0.039,-0.412 0.058,-0.451 0.096,-0.479C0.134,-0.506 0.187,-0.52 0.255,-0.52C0.322,-0.52 0.376,-0.507 0.416,-0.48C0.456,-0.452 0.478,-0.415 0.482,-0.367L0.348,-0.367C0.345,-0.384 0.336,-0.398 0.32,-0.407C0.304,-0.416 0.281,-0.42 0.252,-0.42C0.225,-0.42 0.206,-0.416 0.193,-0.409C0.18,-0.401 0.173,-0.39 0.173,-0.376C0.173,-0.364 0.178,-0.355 0.189,-0.348C0.2,-0.341 0.217,-0.334 0.242,-0.329L0.334,-0.31C0.385,-0.299 0.424,-0.28 0.451,-0.251C0.477,-0.222 0.49,-0.187 0.49,-0.148C0.49,-0.098 0.47,-0.059 0.432,-0.032C0.393,-0.004 0.337,0.01 0.266,0.01Z" style="fill-rule:nonzero;"/>
            </g>
            <g transform="matrix(274.273,0,0,274.273,520.503,837.834)">
                <path d="M0.381,-0C0.377,-0.015 0.374,-0.03 0.373,-0.047C0.371,-0.064 0.37,-0.083 0.37,-0.105L0.366,-0.105L0.366,-0.346C0.366,-0.367 0.359,-0.383 0.346,-0.395C0.332,-0.406 0.312,-0.412 0.285,-0.412C0.26,-0.412 0.24,-0.408 0.225,-0.399C0.21,-0.39 0.2,-0.378 0.195,-0.361L0.052,-0.361C0.059,-0.407 0.082,-0.445 0.123,-0.475C0.164,-0.505 0.219,-0.52 0.29,-0.52C0.363,-0.52 0.419,-0.504 0.458,-0.471C0.497,-0.438 0.516,-0.391 0.516,-0.33L0.516,-0.105C0.516,-0.088 0.517,-0.071 0.52,-0.055C0.522,-0.038 0.526,-0.019 0.531,-0L0.381,-0ZM0.203,0.01C0.152,0.01 0.112,-0.003 0.082,-0.029C0.052,-0.054 0.037,-0.088 0.037,-0.131C0.037,-0.178 0.055,-0.217 0.091,-0.246C0.126,-0.274 0.176,-0.293 0.24,-0.302L0.389,-0.323L0.389,-0.236L0.265,-0.217C0.238,-0.213 0.219,-0.206 0.206,-0.195C0.193,-0.184 0.187,-0.17 0.187,-0.151C0.187,-0.134 0.193,-0.122 0.205,-0.113C0.217,-0.104 0.233,-0.1 0.253,-0.1C0.284,-0.1 0.311,-0.109 0.333,-0.126C0.355,-0.142 0.366,-0.162 0.366,-0.185L0.38,-0.105C0.365,-0.067 0.343,-0.038 0.313,-0.019C0.283,0 0.246,0.01 0.203,0.01Z" style="fill-rule:nonzero;"/>
            </g>
            <g transform="matrix(274.273,0,0,274.273,649.686,837.834)">
                <path d="M0.381,-0C0.377,-0.015 0.374,-0.03 0.373,-0.047C0.371,-0.064 0.37,-0.083 0.37,-0.105L0.366,-0.105L0.366,-0.346C0.366,-0.367 0.359,-0.383 0.346,-0.395C0.332,-0.406 0.312,-0.412 0.285,-0.412C0.26,-0.412 0.24,-0.408 0.225,-0.399C0.21,-0.39 0.2,-0.378 0.195,-0.361L0.052,-0.361C0.059,-0.407 0.082,-0.445 0.123,-0.475C0.164,-0.505 0.219,-0.52 0.29,-0.52C0.363,-0.52 0.419,-0.504 0.458,-0.471C0.497,-0.438 0.516,-0.391 0.516,-0.33L0.516,-0.105C0.516,-0.088 0.517,-0.071 0.52,-0.055C0.522,-0.038 0.526,-0.019 0.531,-0L0.381,-0ZM0.203,0.01C0.152,0.01 0.112,-0.003 0.082,-0.029C0.052,-0.054 0.037,-0.088 0.037,-0.131C0.037,-0.178 0.055,-0.217 0.091,-0.246C0.126,-0.274 0.176,-0.293 0.24,-0.302L0.389,-0.323L0.389,-0.236L0.265,-0.217C0.238,-0.213 0.219,-0.206 0.206,-0.195C0.193,-0.184 0.187,-0.17 0.187,-0.151C0.187,-0.134 0.193,-0.122 0.205,-0.113C0.217,-0.104 0.233,-0.1 0.253,-0.1C0.284,-0.1 0.311,-0.109 0.333,-0.126C0.355,-0.142 0.366,-0.162 0.366,-0.185L0.38,-0.105C0.365,-0.067 0.343,-0.038 0.313,-0.019C0.283,0 0.246,0.01 0.203,0.01Z" style="fill-rule:nonzero;"/>
            </g>
            <g transform="matrix(274.273,0,0,274.273,779.965,837.834)">
                <path d="M0.291,0.01C0.238,0.01 0.191,-0.001 0.15,-0.024C0.109,-0.047 0.078,-0.078 0.055,-0.118C0.032,-0.158 0.02,-0.204 0.02,-0.255C0.02,-0.306 0.032,-0.352 0.055,-0.392C0.078,-0.432 0.109,-0.463 0.15,-0.486C0.191,-0.509 0.238,-0.52 0.291,-0.52C0.336,-0.52 0.376,-0.512 0.412,-0.496C0.447,-0.479 0.476,-0.457 0.5,-0.428C0.523,-0.399 0.537,-0.366 0.544,-0.327L0.399,-0.327C0.392,-0.352 0.379,-0.37 0.36,-0.383C0.341,-0.396 0.318,-0.402 0.293,-0.402C0.269,-0.402 0.248,-0.396 0.231,-0.384C0.213,-0.372 0.199,-0.355 0.19,-0.333C0.181,-0.311 0.176,-0.285 0.176,-0.255C0.176,-0.225 0.181,-0.199 0.19,-0.177C0.199,-0.155 0.213,-0.138 0.231,-0.126C0.248,-0.114 0.269,-0.108 0.293,-0.108C0.318,-0.108 0.341,-0.114 0.36,-0.127C0.379,-0.14 0.392,-0.158 0.399,-0.183L0.544,-0.183C0.537,-0.144 0.523,-0.111 0.5,-0.082C0.476,-0.053 0.447,-0.031 0.412,-0.015C0.376,0.002 0.336,0.01 0.291,0.01Z" style="fill-rule:nonzero;"/>
            </g>
            <g transform="matrix(274.273,0,0,274.273,901.468,837.834)">
                <path d="M0.024,-0L0.282,-0.72L0.414,-0.72L0.177,-0L0.024,-0ZM0.552,-0L0.316,-0.72L0.454,-0.72L0.712,-0L0.552,-0ZM0.16,-0.279L0.564,-0.279L0.564,-0.159L0.16,-0.159L0.16,-0.279Z" style="fill-rule:nonzero;"/>
            </g>
            <g transform="matrix(274.273,0,0,274.273,1070.15,837.834)">
                <path d="M0.421,-0L0.421,-0.113L0.431,-0.111C0.424,-0.074 0.405,-0.045 0.372,-0.023C0.339,-0.001 0.299,0.01 0.253,0.01C0.206,0.01 0.166,-0.001 0.132,-0.023C0.097,-0.044 0.071,-0.075 0.052,-0.114C0.033,-0.153 0.024,-0.2 0.024,-0.253C0.024,-0.307 0.034,-0.354 0.053,-0.394C0.072,-0.434 0.099,-0.465 0.135,-0.487C0.169,-0.509 0.21,-0.52 0.257,-0.52C0.306,-0.52 0.345,-0.509 0.376,-0.486C0.406,-0.463 0.424,-0.432 0.429,-0.393L0.418,-0.392L0.418,-0.72L0.568,-0.72L0.568,-0L0.421,-0ZM0.301,-0.11C0.336,-0.11 0.365,-0.123 0.387,-0.148C0.409,-0.172 0.42,-0.208 0.42,-0.255C0.42,-0.302 0.409,-0.337 0.387,-0.363C0.364,-0.388 0.335,-0.4 0.299,-0.4C0.264,-0.4 0.236,-0.387 0.214,-0.362C0.191,-0.337 0.18,-0.301 0.18,-0.254C0.18,-0.207 0.191,-0.172 0.214,-0.147C0.236,-0.122 0.265,-0.11 0.301,-0.11Z" style="fill-rule:nonzero;"/>
            </g>
            <g transform="matrix(274.273,0,0,274.273,1216.06,837.834)">
                <path d="M0.302,0.01C0.246,0.01 0.197,-0.001 0.155,-0.024C0.112,-0.046 0.079,-0.077 0.056,-0.118C0.032,-0.158 0.02,-0.204 0.02,-0.257C0.02,-0.31 0.032,-0.356 0.056,-0.395C0.079,-0.434 0.112,-0.465 0.155,-0.487C0.197,-0.509 0.246,-0.52 0.302,-0.52C0.359,-0.52 0.408,-0.509 0.451,-0.487C0.493,-0.465 0.526,-0.434 0.549,-0.395C0.572,-0.356 0.584,-0.31 0.584,-0.257C0.584,-0.204 0.572,-0.158 0.549,-0.118C0.525,-0.077 0.492,-0.046 0.45,-0.024C0.407,-0.001 0.358,0.01 0.302,0.01ZM0.302,-0.108C0.325,-0.108 0.347,-0.114 0.366,-0.126C0.385,-0.138 0.4,-0.155 0.411,-0.178C0.422,-0.2 0.428,-0.227 0.428,-0.258C0.428,-0.304 0.416,-0.339 0.392,-0.365C0.367,-0.39 0.337,-0.402 0.302,-0.402C0.267,-0.402 0.237,-0.389 0.213,-0.364C0.188,-0.339 0.176,-0.303 0.176,-0.258C0.176,-0.227 0.182,-0.2 0.193,-0.178C0.204,-0.155 0.22,-0.138 0.239,-0.126C0.258,-0.114 0.279,-0.108 0.302,-0.108Z" style="fill-rule:nonzero;"/>
            </g>
            <g transform="matrix(274.273,0,0,274.273,1355.39,837.834)">
                <path d="M0.371,0.01C0.322,0.01 0.283,-0.001 0.253,-0.024C0.222,-0.047 0.204,-0.078 0.199,-0.117L0.207,-0.118L0.207,-0L0.06,-0L0.06,-0.72L0.21,-0.72L0.21,-0.397L0.201,-0.399C0.208,-0.436 0.228,-0.466 0.26,-0.488C0.291,-0.509 0.331,-0.52 0.379,-0.52C0.425,-0.52 0.465,-0.509 0.499,-0.488C0.532,-0.466 0.558,-0.435 0.577,-0.396C0.595,-0.357 0.604,-0.31 0.604,-0.257C0.604,-0.203 0.594,-0.156 0.575,-0.116C0.556,-0.076 0.529,-0.045 0.494,-0.023C0.459,-0.001 0.418,0.01 0.371,0.01ZM0.329,-0.11C0.364,-0.11 0.393,-0.123 0.415,-0.148C0.437,-0.173 0.448,-0.209 0.448,-0.256C0.448,-0.303 0.437,-0.338 0.415,-0.363C0.392,-0.388 0.363,-0.4 0.327,-0.4C0.292,-0.4 0.264,-0.388 0.242,-0.363C0.219,-0.337 0.208,-0.302 0.208,-0.255C0.208,-0.208 0.219,-0.172 0.242,-0.148C0.264,-0.123 0.293,-0.11 0.329,-0.11Z" style="fill-rule:nonzero;"/>
            </g>
            <g transform="matrix(274.273,0,0,274.273,1501.3,837.834)">
                <path d="M0.302,0.01C0.246,0.01 0.197,-0.001 0.155,-0.024C0.112,-0.046 0.079,-0.077 0.056,-0.118C0.032,-0.158 0.02,-0.204 0.02,-0.257C0.02,-0.31 0.032,-0.356 0.056,-0.395C0.079,-0.434 0.112,-0.465 0.155,-0.487C0.197,-0.509 0.246,-0.52 0.302,-0.52C0.359,-0.52 0.408,-0.509 0.451,-0.487C0.493,-0.465 0.526,-0.434 0.549,-0.395C0.572,-0.356 0.584,-0.31 0.584,-0.257C0.584,-0.204 0.572,-0.158 0.549,-0.118C0.525,-0.077 0.492,-0.046 0.45,-0.024C0.407,-0.001 0.358,0.01 0.302,0.01ZM0.302,-0.108C0.325,-0.108 0.347,-0.114 0.366,-0.126C0.385,-0.138 0.4,-0.155 0.411,-0.178C0.422,-0.2 0.428,-0.227 0.428,-0.258C0.428,-0.304 0.416,-0.339 0.392,-0.365C0.367,-0.39 0.337,-0.402 0.302,-0.402C0.267,-0.402 0.237,-0.389 0.213,-0.364C0.188,-0.339 0.176,-0.303 0.176,-0.258C0.176,-0.227 0.182,-0.2 0.193,-0.178C0.204,-0.155 0.22,-0.138 0.239,-0.126C0.258,-0.114 0.279,-0.108 0.302,-0.108Z" style="fill-rule:nonzero;"/>
            </g>
            <g transform="matrix(274.273,0,0,274.273,1640.63,837.834)">
                <path d="M0.3,0.01C0.243,0.01 0.194,-0.001 0.152,-0.024C0.11,-0.046 0.078,-0.077 0.055,-0.117C0.032,-0.157 0.02,-0.203 0.02,-0.255C0.02,-0.308 0.032,-0.354 0.055,-0.394C0.078,-0.433 0.11,-0.464 0.151,-0.487C0.192,-0.509 0.24,-0.52 0.295,-0.52C0.348,-0.52 0.393,-0.509 0.432,-0.488C0.471,-0.467 0.501,-0.437 0.522,-0.399C0.543,-0.361 0.554,-0.316 0.554,-0.265C0.554,-0.254 0.554,-0.245 0.553,-0.236C0.552,-0.227 0.551,-0.218 0.55,-0.21L0.108,-0.21L0.108,-0.309L0.429,-0.309L0.403,-0.291C0.403,-0.332 0.393,-0.363 0.374,-0.383C0.354,-0.402 0.327,-0.412 0.293,-0.412C0.254,-0.412 0.223,-0.399 0.202,-0.372C0.18,-0.345 0.169,-0.305 0.169,-0.252C0.169,-0.2 0.18,-0.161 0.202,-0.136C0.223,-0.111 0.256,-0.098 0.299,-0.098C0.323,-0.098 0.344,-0.102 0.361,-0.11C0.378,-0.118 0.391,-0.131 0.4,-0.149L0.541,-0.149C0.524,-0.1 0.496,-0.061 0.456,-0.033C0.415,-0.004 0.363,0.01 0.3,0.01Z" style="fill-rule:nonzero;"/>
            </g>
            <g transform="matrix(274.273,0,0,274.273,1751.99,837.834)">
                <rect x="0" y="0.06" width="0.486" height="0.11" style="fill-rule:nonzero;"/>
            </g>
            <g transform="matrix(274.273,0,0,274.273,1885.28,837.834)">
            </g>
            <g transform="matrix(1,0,0,1,-50.9898,15.7626)">
                <g transform="matrix(0.203345,0,0,0.203345,1742.87,345.192)">
                    <circle cx="945.785" cy="1536.3" r="293.614"/>
                </g>
                <g transform="matrix(1,0,0,1,1217.17,-665.026)">
                    <g transform="matrix(62.5,0,0,62.5,669.068,1343.26)">
                        <path d="M0.532,-0.01L0.068,-0.203L0.068,-0.383L0.532,-0.576L0.532,-0.426L0.131,-0.26L0.131,-0.327L0.532,-0.161L0.532,-0.01Z" style="fill-rule:nonzero;"/>
                    </g>
                    <g transform="matrix(62.5,0,0,62.5,700.567,1343.26)">
                        <path d="M0.072,0.11L0.368,-0.75L0.528,-0.75L0.232,0.11L0.072,0.11Z" style="fill-rule:nonzero;"/>
                    </g>
                    <g transform="matrix(62.5,0,0,62.5,732.067,1343.26)">
                        <path d="M0.068,-0.01L0.068,-0.161L0.469,-0.327L0.469,-0.26L0.068,-0.426L0.068,-0.576L0.532,-0.383L0.532,-0.203L0.068,-0.01Z" style="fill-rule:nonzero;"/>
                    </g>
                    <g transform="matrix(62.5,0,0,62.5,769.566,1343.26)">
                    </g>
                </g>
            </g>
        </g>
    </g>
</svg>
